<svg id="Ebene_1" data-name="Ebene 1" xmlns="http://www.w3.org/2000/svg" xmlns:xlink="http://www.w3.org/1999/xlink" viewBox="0 0 988.87 233.12"><defs><style>.cls-1{fill:none;}.cls-2{fill:#03123f;}.cls-3{opacity:0.5;}.cls-4{fill:#e6e6e6;}.cls-5{fill:#ffad00;}.cls-6{fill:#fff;}.cls-7{clip-path:url(#clip-path);}.cls-8{clip-path:url(#clip-path-3);}.cls-9{clip-path:url(#clip-path-4);}</style><clipPath id="clip-path"><rect class="cls-1" x="147.84" y="-574.76" width="323" height="40"/></clipPath><clipPath id="clip-path-3"><rect class="cls-1" x="147.84" y="-518.76" width="323" height="40"/></clipPath><clipPath id="clip-path-4"><rect class="cls-1" x="147.84" y="-460.76" width="323" height="40"/></clipPath></defs><title>Spielwiese_Vektor</title><rect class="cls-2" y="1.32" width="988.87" height="231.8"/><g class="cls-3"><path class="cls-4" d="M0,85.32v-84H53.88V5.4H4.32V41.88H51.24V46H4.32V85.32Z"/><path class="cls-4" d="M73.44,1.32V81.24h48.72v4.08h-53v-84Z"/><path class="cls-4" d="M136.2,85.32v-84h4.32v84Z"/><path class="cls-4" d="M157.32,43.32C157.32,17.52,170.64,0,197.15,0c17.52,0,31.56,6.84,34.56,23.4h-4.56c-3.6-14.52-14.76-19.08-30-19.08-23.51,0-35.27,15.48-35.27,39s11.76,39,35.27,39c12.36,0,23.4-4.44,30.6-10.68V47.4H202.07V43.32h30V73.56c-8.64,8.28-20.88,13.08-34.92,13.08C170.64,86.64,157.32,69.12,157.32,43.32Z"/><path class="cls-4" d="M313.07,40.8V1.32h4.32v84h-4.32V44.88H254V85.32h-4.32v-84H254V40.8Z"/><path class="cls-4" d="M331,5.4V1.32h64.32V5.4h-30V85.32H361V5.4Z"/></g><path class="cls-5" d="M477.27,104.4,405.27,0h57l48,72.9,48-72.9h57l-72,104.4L615,210h-57.3l-47.4-73.8L462.57,210h-57Z"/><path class="cls-6" d="M651,149.6c13.68,0,21.6,6.48,23.76,17.88h-9.12C663.67,160.76,659,158,651,158c-11.16,0-16.44,7.92-16.44,21.84s5.28,22,16.44,22c8,0,12.72-3,14.64-9.72h9.12c-2.16,11.4-10.08,18-23.76,18-17,0-25.68-11.64-25.68-30.24S633.91,149.6,651,149.6Z"/><path class="cls-6" d="M688.39,124.64h9.12V157c2.76-4.32,7.44-7.44,15.84-7.44,13.08,0,21.12,6.36,21.12,22.44v36.6h-9.12v-35.4c0-11.52-5.16-15.24-13.92-15.24s-14,3.72-14,15.24v35.4h-9Z"/><path class="cls-6" d="M772.27,149.6c15,0,21.48,6.48,21.48,17.64v41.4h-8.52v-7.8c-4.08,5.88-10.92,8.76-18.84,8.76-12.72,0-18.12-7.44-18.12-17,0-9.84,5.64-15.84,17.16-17.64l13.2-2.16c4.68-.6,6.24-2.4,6.24-6.36,0-5.28-3.36-9-12.72-9-8.16,0-11.28,2.76-12,7.92h-9C752,156.44,758.23,149.6,772.27,149.6Zm6.36,30.84-11,1.68c-6.6,1-10.44,4.56-10.44,9.84,0,6.12,3.48,9.84,11.16,9.84,8.76,0,16.44-5,16.44-15.12V179A33.1,33.1,0,0,1,778.63,180.44Z"/><path class="cls-6" d="M811.51,151H820v6.48c2.52-4.44,7.32-7.92,16.68-7.92,12.72,0,20.88,6.36,20.88,22.44v36.6h-9.12v-35.4c0-11.52-5.28-15.24-13.92-15.24s-14,3.72-14,15.24v35.4h-9Z"/><path class="cls-6" d="M923.59,151v56.52c0,17.28-9.24,25.56-25.8,25.56-15.24,0-22.92-6.12-25.2-18h9.12c1.8,7.44,6.72,9.84,16.08,9.84,11.4,0,16.68-5.4,16.68-17v-9.84c-3.48,5.16-9.12,8.28-17.4,8.28-17,0-25.08-10.68-25.08-28.44s7.92-28.32,25.08-28.32c8.52,0,14.4,3.36,17.76,8.88V151Zm-9,26.88c0-12.72-5-19.92-16.56-19.92s-16.56,7.2-16.56,19.92,4.92,20.16,16.56,20.16S914.59,190.76,914.59,177.92Z"/><path class="cls-6" d="M988.75,182.36H947.59c.6,12.6,5.76,19.8,16.44,19.8,7.44,0,11.76-2.28,14.28-8.52h9.36c-2.76,10.92-10.92,16.44-23.64,16.44-17.28,0-25.44-11.52-25.44-30.24,0-18.24,8-30.24,25.32-30.24s25,10.56,25,29C988.87,180,988.87,180.92,988.75,182.36Zm-9-7.56c-.84-12.24-5.88-17.4-15.84-17.4s-15,6.12-16.08,17.4Z"/></svg>